<svg width="199" height="62" viewBox="0 0 199 62" fill="none" xmlns="http://www.w3.org/2000/svg">
<g clip-path="url(#clip0_67_6805)">
<g clip-path="url(#clip1_67_6805)">
<path d="M34.328 55.6172C28.112 55.6172 23.2033 54.2606 19.602 51.5472C16.05 48.8339 14.0027 44.9366 13.46 39.8552H27.372C27.964 42.8646 30.036 44.3692 33.588 44.3692C36.6467 44.3692 38.8913 43.2346 40.322 40.9652C41.802 38.6959 42.5913 35.2426 42.69 30.6052C40.0753 34.7492 36.0793 36.8212 30.702 36.8212C25.4233 36.8212 21.1067 35.3412 17.752 32.3812C14.4467 29.3719 12.794 25.1539 12.794 19.7272C12.794 14.1032 14.7427 9.58922 18.64 6.18522C22.5867 2.78122 27.89 1.07922 34.55 1.07922C42.1967 1.07922 47.9687 3.42255 51.866 8.10922C55.7633 12.7466 57.712 19.0366 57.712 26.9792V28.7552C57.712 37.3392 55.6893 43.9746 51.644 48.6612C47.648 53.2986 41.876 55.6172 34.328 55.6172ZM29.148 24.9812C30.4307 26.3626 32.1573 27.0532 34.328 27.0532C36.4987 27.0532 38.25 26.3626 39.582 24.9812C40.914 23.5506 41.58 21.7746 41.58 19.6532C41.58 17.2852 40.914 15.3859 39.582 13.9552C38.2993 12.4752 36.548 11.7352 34.328 11.7352C32.256 11.7352 30.554 12.4752 29.222 13.9552C27.9393 15.3859 27.298 17.2359 27.298 19.5052C27.298 21.7252 27.9147 23.5506 29.148 24.9812ZM83.7409 55.6172C77.5249 55.6172 72.6162 54.2606 69.0149 51.5472C65.4629 48.8339 63.4156 44.9366 62.8729 39.8552H76.7849C77.3769 42.8646 79.4489 44.3692 83.0009 44.3692C86.0596 44.3692 88.3042 43.2346 89.7349 40.9652C91.2149 38.6959 92.0042 35.2426 92.1029 30.6052C89.4882 34.7492 85.4922 36.8212 80.1149 36.8212C74.8362 36.8212 70.5196 35.3412 67.1649 32.3812C63.8596 29.3719 62.2069 25.1539 62.2069 19.7272C62.2069 14.1032 64.1556 9.58922 68.0529 6.18522C71.9996 2.78122 77.3029 1.07922 83.9629 1.07922C91.6096 1.07922 97.3816 3.42255 101.279 8.10922C105.176 12.7466 107.125 19.0366 107.125 26.9792V28.7552C107.125 37.3392 105.102 43.9746 101.057 48.6612C97.0609 53.2986 91.2889 55.6172 83.7409 55.6172ZM78.5609 24.9812C79.8436 26.3626 81.5702 27.0532 83.7409 27.0532C85.9116 27.0532 87.6629 26.3626 88.9949 24.9812C90.3269 23.5506 90.9929 21.7746 90.9929 19.6532C90.9929 17.2852 90.3269 15.3859 88.9949 13.9552C87.7122 12.4752 85.9609 11.7352 83.7409 11.7352C81.6689 11.7352 79.9669 12.4752 78.6349 13.9552C77.3522 15.3859 76.7109 17.2359 76.7109 19.5052C76.7109 21.7252 77.3276 23.5506 78.5609 24.9812Z" fill="#252B42"/>
</g>
<g clip-path="url(#clip2_67_6805)">
<g clip-path="url(#clip3_67_6805)">
<path d="M126.26 24.0032V21.5032C124.58 21.3832 123.293 20.9099 122.4 20.0832C121.52 19.2432 121.047 18.1432 120.98 16.7832H124.68C124.8 17.8366 125.327 18.4632 126.26 18.6632V15.7432C124.5 15.4899 123.233 15.0166 122.46 14.3232C121.687 13.6166 121.3 12.5766 121.3 11.2032C121.3 9.98989 121.747 8.98322 122.64 8.18322C123.533 7.38322 124.74 6.92989 126.26 6.82322V5.04322H127.82V6.84322C130.833 7.09655 132.453 8.53656 132.68 11.1632H129.06C128.927 10.3499 128.513 9.84989 127.82 9.66322V12.4232C129.487 12.6632 130.747 13.1099 131.6 13.7632C132.453 14.4166 132.88 15.4299 132.88 16.8032C132.88 18.0966 132.453 19.1766 131.6 20.0432C130.747 20.9099 129.487 21.3966 127.82 21.5032V24.0032H126.26ZM129.16 17.2432C129.16 16.8966 129.067 16.6366 128.88 16.4632C128.693 16.2766 128.34 16.1232 127.82 16.0032V18.6632C128.713 18.4766 129.16 18.0032 129.16 17.2432ZM124.9 10.9032C124.9 11.2632 124.993 11.5432 125.18 11.7432C125.38 11.9299 125.74 12.0766 126.26 12.1832V9.62322C125.353 9.78322 124.9 10.2099 124.9 10.9032Z" fill="#252B42"/>
</g>
<g clip-path="url(#clip4_67_6805)">
<path d="M121.94 45.3032V33.8632H125.188C126.372 33.8632 127.332 34.1406 128.068 34.6952C128.815 35.2392 129.188 36.0766 129.188 37.2072V37.2712C129.188 38.4232 128.815 39.2766 128.068 39.8312C127.332 40.3752 126.372 40.6472 125.188 40.6472H123.332V45.3032H121.94ZM123.332 39.5432H125.284C126.095 39.5432 126.713 39.3512 127.14 38.9672C127.577 38.5726 127.796 38.0072 127.796 37.2712V37.2072C127.796 35.7246 126.959 34.9832 125.284 34.9832H123.332V39.5432ZM134.431 45.4472C133.236 45.4472 132.26 45.0632 131.503 44.2952C130.756 43.5166 130.383 42.4872 130.383 41.2072V41.0792C130.383 39.8206 130.745 38.7912 131.471 37.9912C132.207 37.1912 133.151 36.7912 134.303 36.7912C135.369 36.7912 136.26 37.1379 136.975 37.8312C137.7 38.5139 138.063 39.5539 138.063 40.9512V41.3832H131.759C131.791 42.3432 132.031 43.0792 132.479 43.5912C132.937 44.0926 133.593 44.3432 134.447 44.3432C135.759 44.3432 136.5 43.8579 136.671 42.8872H137.999C137.86 43.7086 137.471 44.3432 136.831 44.7912C136.191 45.2286 135.391 45.4472 134.431 45.4472ZM131.807 40.3112H136.703C136.585 38.7006 135.785 37.8952 134.303 37.8952C133.631 37.8952 133.076 38.1139 132.639 38.5512C132.201 38.9779 131.924 39.5646 131.807 40.3112ZM140.2 45.3032V36.9352H141.528V38.4392C141.816 37.9166 142.168 37.5166 142.584 37.2392C143.011 36.9619 143.576 36.8126 144.28 36.7912V38.0392C143.363 38.0819 142.675 38.2952 142.216 38.6792C141.758 39.0632 141.528 39.7406 141.528 40.7112V45.3032H140.2ZM150.746 45.3032V33.8632H152.682L156.218 42.7752L159.642 33.8632H161.562V45.3032H160.17V35.6712L156.378 45.3032H155.946L152.026 35.6712V45.3032H150.746ZM167.941 44.3432C168.773 44.3432 169.435 44.0552 169.925 43.4792C170.427 42.9032 170.677 42.1406 170.677 41.1912V41.0792C170.677 40.1086 170.427 39.3352 169.925 38.7592C169.435 38.1832 168.773 37.8952 167.941 37.8952C167.099 37.8952 166.432 38.1832 165.941 38.7592C165.451 39.3352 165.205 40.1032 165.205 41.0632V41.1912C165.205 42.1512 165.451 42.9192 165.941 43.4952C166.432 44.0606 167.099 44.3432 167.941 44.3432ZM167.925 45.4472C166.741 45.4472 165.76 45.0472 164.981 44.2472C164.213 43.4366 163.829 42.4179 163.829 41.1912V41.0632C163.829 39.8152 164.213 38.7912 164.981 37.9912C165.76 37.1912 166.747 36.7912 167.941 36.7912C169.136 36.7912 170.117 37.1912 170.885 37.9912C171.664 38.7806 172.053 39.7992 172.053 41.0472V41.1752C172.053 42.4339 171.664 43.4632 170.885 44.2632C170.107 45.0526 169.12 45.4472 167.925 45.4472ZM174.21 45.3032V36.9352H175.538V38.2632C175.74 37.8366 176.076 37.4846 176.546 37.2072C177.015 36.9299 177.575 36.7912 178.226 36.7912C179.143 36.7912 179.863 37.0632 180.386 37.6072C180.908 38.1512 181.17 39.0046 181.17 40.1672V45.3032H179.842V40.0712C179.842 39.3352 179.682 38.7966 179.362 38.4552C179.042 38.1139 178.546 37.9432 177.874 37.9432C177.223 37.9432 176.668 38.1459 176.21 38.5512C175.762 38.9566 175.538 39.5166 175.538 40.2312V45.3032H174.21ZM186.416 45.4152C185.68 45.4152 185.12 45.2179 184.736 44.8232C184.352 44.4286 184.16 43.8899 184.16 43.2072V38.0552H182.96V36.9352H184.16V35.0312H185.488V36.9352H187.44V38.0552H185.488V43.0792C185.488 43.8899 185.835 44.2952 186.528 44.2952C186.912 44.2952 187.253 44.2366 187.552 44.1192V45.2392C187.221 45.3566 186.843 45.4152 186.416 45.4152ZM189.66 45.3032V32.9352H190.988V38.2632C191.19 37.8366 191.526 37.4846 191.996 37.2072C192.465 36.9299 193.025 36.7912 193.676 36.7912C194.593 36.7912 195.313 37.0632 195.836 37.6072C196.358 38.1512 196.62 39.0046 196.62 40.1672V45.3032H195.292V40.0712C195.292 39.3352 195.132 38.7966 194.812 38.4552C194.492 38.1139 193.996 37.9432 193.324 37.9432C192.673 37.9432 192.118 38.1459 191.66 38.5512C191.212 38.9566 190.988 39.5166 190.988 40.2312V45.3032H189.66Z" fill="#374754"/>
</g>
</g>
</g>
<defs>
<clipPath id="clip0_67_6805">
<rect width="198" height="61" fill="white" transform="translate(0.5 0.303223)"/>
</clipPath>
<clipPath id="clip1_67_6805">
<rect width="120" height="104" fill="white" transform="translate(0.5 -21.1968)"/>
</clipPath>
<clipPath id="clip2_67_6805">
<rect width="78" height="51" fill="white" transform="translate(120.5 0.303223)"/>
</clipPath>
<clipPath id="clip3_67_6805">
<rect width="13" height="28" fill="white" transform="translate(120.5 0.303223)"/>
</clipPath>
<clipPath id="clip4_67_6805">
<rect width="78" height="23" fill="white" transform="translate(120.5 28.3032)"/>
</clipPath>
</defs>
</svg>
