<svg width="187" height="62" viewBox="0 0 187 62" fill="none" xmlns="http://www.w3.org/2000/svg">
<g clip-path="url(#clip0_67_6783)">
<g clip-path="url(#clip1_67_6783)">
<path d="M22.932 54.8032V16.8412L12.868 23.0572V10.4032L25.004 1.89322H38.102V54.8032H22.932ZM71.2465 43.9252C74.4531 43.9252 76.7718 42.7412 78.2025 40.3732C79.6331 38.0052 80.3485 34.3299 80.3485 29.3472V27.2012C80.3485 22.3172 79.6085 18.6666 78.1285 16.2492C76.6485 13.8319 74.3051 12.6232 71.0985 12.6232C64.9318 12.6232 61.8485 17.4826 61.8485 27.2012V29.4212C61.8485 34.3546 62.5885 38.0052 64.0685 40.3732C65.5978 42.7412 67.9905 43.9252 71.2465 43.9252ZM70.8025 55.6912C63.3531 55.6912 57.4578 53.3972 53.1165 48.8092C48.8245 44.1719 46.6785 37.7339 46.6785 29.4952V27.2752C46.6785 19.1352 48.9478 12.7466 53.4865 8.10922C58.0251 3.47189 63.8958 1.15322 71.0985 1.15322C78.3505 1.15322 84.2211 3.39789 88.7105 7.88722C93.2491 12.3272 95.5185 18.6912 95.5185 26.9792V29.0512C95.5185 37.3886 93.2985 43.9252 88.8585 48.6612C84.4185 53.3479 78.3998 55.6912 70.8025 55.6912Z" fill="white"/>
</g>
<g clip-path="url(#clip2_67_6783)">
<g clip-path="url(#clip3_67_6783)">
<path d="M114.26 24.0032V21.5032C112.58 21.3832 111.293 20.9099 110.4 20.0832C109.52 19.2432 109.047 18.1432 108.98 16.7832H112.68C112.8 17.8366 113.327 18.4632 114.26 18.6632V15.7432C112.5 15.4899 111.233 15.0166 110.46 14.3232C109.687 13.6166 109.3 12.5766 109.3 11.2032C109.3 9.98989 109.747 8.98322 110.64 8.18322C111.533 7.38322 112.74 6.92989 114.26 6.82322V5.04322H115.82V6.84322C118.833 7.09655 120.453 8.53656 120.68 11.1632H117.06C116.927 10.3499 116.513 9.84989 115.82 9.66322V12.4232C117.487 12.6632 118.747 13.1099 119.6 13.7632C120.453 14.4166 120.88 15.4299 120.88 16.8032C120.88 18.0966 120.453 19.1766 119.6 20.0432C118.747 20.9099 117.487 21.3966 115.82 21.5032V24.0032H114.26ZM117.16 17.2432C117.16 16.8966 117.067 16.6366 116.88 16.4632C116.693 16.2766 116.34 16.1232 115.82 16.0032V18.6632C116.713 18.4766 117.16 18.0032 117.16 17.2432ZM112.9 10.9032C112.9 11.2632 112.993 11.5432 113.18 11.7432C113.38 11.9299 113.74 12.0766 114.26 12.1832V9.62322C113.353 9.78322 112.9 10.2099 112.9 10.9032Z" fill="white"/>
</g>
<g clip-path="url(#clip4_67_6783)">
<path d="M109.94 45.3032V33.8632H113.188C114.372 33.8632 115.332 34.1406 116.068 34.6952C116.815 35.2392 117.188 36.0766 117.188 37.2072V37.2712C117.188 38.4232 116.815 39.2766 116.068 39.8312C115.332 40.3752 114.372 40.6472 113.188 40.6472H111.332V45.3032H109.94ZM111.332 39.5432H113.284C114.095 39.5432 114.713 39.3512 115.14 38.9672C115.577 38.5726 115.796 38.0072 115.796 37.2712V37.2072C115.796 35.7246 114.959 34.9832 113.284 34.9832H111.332V39.5432ZM122.431 45.4472C121.236 45.4472 120.26 45.0632 119.503 44.2952C118.756 43.5166 118.383 42.4872 118.383 41.2072V41.0792C118.383 39.8206 118.745 38.7912 119.471 37.9912C120.207 37.1912 121.151 36.7912 122.303 36.7912C123.369 36.7912 124.26 37.1379 124.975 37.8312C125.7 38.5139 126.063 39.5539 126.063 40.9512V41.3832H119.759C119.791 42.3432 120.031 43.0792 120.479 43.5912C120.937 44.0926 121.593 44.3432 122.447 44.3432C123.759 44.3432 124.5 43.8579 124.671 42.8872H125.999C125.86 43.7086 125.471 44.3432 124.831 44.7912C124.191 45.2286 123.391 45.4472 122.431 45.4472ZM119.807 40.3112H124.703C124.585 38.7006 123.785 37.8952 122.303 37.8952C121.631 37.8952 121.076 38.1139 120.639 38.5512C120.201 38.9779 119.924 39.5646 119.807 40.3112ZM128.2 45.3032V36.9352H129.528V38.4392C129.816 37.9166 130.168 37.5166 130.584 37.2392C131.011 36.9619 131.576 36.8126 132.28 36.7912V38.0392C131.363 38.0819 130.675 38.2952 130.216 38.6792C129.758 39.0632 129.528 39.7406 129.528 40.7112V45.3032H128.2ZM138.746 45.3032V33.8632H140.682L144.218 42.7752L147.642 33.8632H149.562V45.3032H148.17V35.6712L144.378 45.3032H143.946L140.026 35.6712V45.3032H138.746ZM155.941 44.3432C156.773 44.3432 157.435 44.0552 157.925 43.4792C158.427 42.9032 158.677 42.1406 158.677 41.1912V41.0792C158.677 40.1086 158.427 39.3352 157.925 38.7592C157.435 38.1832 156.773 37.8952 155.941 37.8952C155.099 37.8952 154.432 38.1832 153.941 38.7592C153.451 39.3352 153.205 40.1032 153.205 41.0632V41.1912C153.205 42.1512 153.451 42.9192 153.941 43.4952C154.432 44.0606 155.099 44.3432 155.941 44.3432ZM155.925 45.4472C154.741 45.4472 153.76 45.0472 152.981 44.2472C152.213 43.4366 151.829 42.4179 151.829 41.1912V41.0632C151.829 39.8152 152.213 38.7912 152.981 37.9912C153.76 37.1912 154.747 36.7912 155.941 36.7912C157.136 36.7912 158.117 37.1912 158.885 37.9912C159.664 38.7806 160.053 39.7992 160.053 41.0472V41.1752C160.053 42.4339 159.664 43.4632 158.885 44.2632C158.107 45.0526 157.12 45.4472 155.925 45.4472ZM162.21 45.3032V36.9352H163.538V38.2632C163.74 37.8366 164.076 37.4846 164.546 37.2072C165.015 36.9299 165.575 36.7912 166.226 36.7912C167.143 36.7912 167.863 37.0632 168.386 37.6072C168.908 38.1512 169.17 39.0046 169.17 40.1672V45.3032H167.842V40.0712C167.842 39.3352 167.682 38.7966 167.362 38.4552C167.042 38.1139 166.546 37.9432 165.874 37.9432C165.223 37.9432 164.668 38.1459 164.21 38.5512C163.762 38.9566 163.538 39.5166 163.538 40.2312V45.3032H162.21ZM174.416 45.4152C173.68 45.4152 173.12 45.2179 172.736 44.8232C172.352 44.4286 172.16 43.8899 172.16 43.2072V38.0552H170.96V36.9352H172.16V35.0312H173.488V36.9352H175.44V38.0552H173.488V43.0792C173.488 43.8899 173.835 44.2952 174.528 44.2952C174.912 44.2952 175.253 44.2366 175.552 44.1192V45.2392C175.221 45.3566 174.843 45.4152 174.416 45.4152ZM177.66 45.3032V32.9352H178.988V38.2632C179.19 37.8366 179.526 37.4846 179.996 37.2072C180.465 36.9299 181.025 36.7912 181.676 36.7912C182.593 36.7912 183.313 37.0632 183.836 37.6072C184.358 38.1512 184.62 39.0046 184.62 40.1672V45.3032H183.292V40.0712C183.292 39.3352 183.132 38.7966 182.812 38.4552C182.492 38.1139 181.996 37.9432 181.324 37.9432C180.673 37.9432 180.118 38.1459 179.66 38.5512C179.212 38.9566 178.988 39.5166 178.988 40.2312V45.3032H177.66Z" fill="white"/>
</g>
</g>
</g>
<defs>
<clipPath id="clip0_67_6783">
<rect width="186" height="61" fill="white" transform="translate(0.5 0.303223)"/>
</clipPath>
<clipPath id="clip1_67_6783">
<rect width="108" height="104" fill="white" transform="translate(0.5 -21.1968)"/>
</clipPath>
<clipPath id="clip2_67_6783">
<rect width="78" height="51" fill="white" transform="translate(108.5 0.303223)"/>
</clipPath>
<clipPath id="clip3_67_6783">
<rect width="13" height="28" fill="white" transform="translate(108.5 0.303223)"/>
</clipPath>
<clipPath id="clip4_67_6783">
<rect width="78" height="23" fill="white" transform="translate(108.5 28.3032)"/>
</clipPath>
</defs>
</svg>
