<svg width="153" height="62" viewBox="0 0 153 62" fill="none" xmlns="http://www.w3.org/2000/svg">
<g clip-path="url(#clip0_67_6761)">
<g clip-path="url(#clip1_67_6761)">
<path d="M37.232 43.9252C40.4387 43.9252 42.7573 42.7412 44.188 40.3732C45.6187 38.0052 46.334 34.3299 46.334 29.3472V27.2012C46.334 22.3172 45.594 18.6666 44.114 16.2492C42.634 13.8319 40.2907 12.6232 37.084 12.6232C30.9173 12.6232 27.834 17.4826 27.834 27.2012V29.4212C27.834 34.3546 28.574 38.0052 30.054 40.3732C31.5833 42.7412 33.976 43.9252 37.232 43.9252ZM36.788 55.6912C29.3387 55.6912 23.4433 53.3972 19.102 48.8092C14.81 44.1719 12.664 37.7339 12.664 29.4952V27.2752C12.664 19.1352 14.9333 12.7466 19.472 8.10922C24.0107 3.47189 29.8813 1.15322 37.084 1.15322C44.336 1.15322 50.2067 3.39789 54.696 7.88722C59.2347 12.3272 61.504 18.6912 61.504 26.9792V29.0512C61.504 37.3886 59.284 43.9252 54.844 48.6612C50.404 53.3479 44.3853 55.6912 36.788 55.6912Z" fill="#252B42"/>
</g>
<g clip-path="url(#clip2_67_6761)">
<g clip-path="url(#clip3_67_6761)">
<path d="M80.76 24.0032V21.5032C79.08 21.3832 77.7933 20.9099 76.9 20.0832C76.02 19.2432 75.5467 18.1432 75.48 16.7832H79.18C79.3 17.8366 79.8267 18.4632 80.76 18.6632V15.7432C79 15.4899 77.7333 15.0166 76.96 14.3232C76.1867 13.6166 75.8 12.5766 75.8 11.2032C75.8 9.98989 76.2467 8.98322 77.14 8.18322C78.0333 7.38322 79.24 6.92989 80.76 6.82322V5.04322H82.32V6.84322C85.3333 7.09655 86.9533 8.53656 87.18 11.1632H83.56C83.4267 10.3499 83.0133 9.84989 82.32 9.66322V12.4232C83.9867 12.6632 85.2467 13.1099 86.1 13.7632C86.9533 14.4166 87.38 15.4299 87.38 16.8032C87.38 18.0966 86.9533 19.1766 86.1 20.0432C85.2467 20.9099 83.9867 21.3966 82.32 21.5032V24.0032H80.76ZM83.66 17.2432C83.66 16.8966 83.5667 16.6366 83.38 16.4632C83.1933 16.2766 82.84 16.1232 82.32 16.0032V18.6632C83.2133 18.4766 83.66 18.0032 83.66 17.2432ZM79.4 10.9032C79.4 11.2632 79.4933 11.5432 79.68 11.7432C79.88 11.9299 80.24 12.0766 80.76 12.1832V9.62322C79.8533 9.78322 79.4 10.2099 79.4 10.9032Z" fill="#252B42"/>
</g>
<g clip-path="url(#clip4_67_6761)">
<path d="M76.44 45.3032V33.8632H79.688C80.872 33.8632 81.832 34.1406 82.568 34.6952C83.3147 35.2392 83.688 36.0766 83.688 37.2072V37.2712C83.688 38.4232 83.3147 39.2766 82.568 39.8312C81.832 40.3752 80.872 40.6472 79.688 40.6472H77.832V45.3032H76.44ZM77.832 39.5432H79.784C80.5947 39.5432 81.2133 39.3512 81.64 38.9672C82.0773 38.5726 82.296 38.0072 82.296 37.2712V37.2072C82.296 35.7246 81.4587 34.9832 79.784 34.9832H77.832V39.5432ZM88.9305 45.4472C87.7358 45.4472 86.7598 45.0632 86.0025 44.2952C85.2558 43.5166 84.8825 42.4872 84.8825 41.2072V41.0792C84.8825 39.8206 85.2452 38.7912 85.9705 37.9912C86.7065 37.1912 87.6505 36.7912 88.8025 36.7912C89.8692 36.7912 90.7598 37.1379 91.4745 37.8312C92.1998 38.5139 92.5625 39.5539 92.5625 40.9512V41.3832H86.2585C86.2905 42.3432 86.5305 43.0792 86.9785 43.5912C87.4372 44.0926 88.0932 44.3432 88.9465 44.3432C90.2585 44.3432 90.9998 43.8579 91.1705 42.8872H92.4985C92.3598 43.7086 91.9705 44.3432 91.3305 44.7912C90.6905 45.2286 89.8905 45.4472 88.9305 45.4472ZM86.3065 40.3112H91.2025C91.0852 38.7006 90.2852 37.8952 88.8025 37.8952C88.1305 37.8952 87.5758 38.1139 87.1385 38.5512C86.7012 38.9779 86.4238 39.5646 86.3065 40.3112ZM94.7003 45.3032V36.9352H96.0283V38.4392C96.3163 37.9166 96.6683 37.5166 97.0843 37.2392C97.5109 36.9619 98.0763 36.8126 98.7803 36.7912V38.0392C97.8629 38.0819 97.1749 38.2952 96.7163 38.6792C96.2576 39.0632 96.0283 39.7406 96.0283 40.7112V45.3032H94.7003ZM105.246 45.3032V33.8632H107.182L110.718 42.7752L114.142 33.8632H116.062V45.3032H114.67V35.6712L110.878 45.3032H110.446L106.526 35.6712V45.3032H105.246ZM122.441 44.3432C123.273 44.3432 123.935 44.0552 124.425 43.4792C124.927 42.9032 125.177 42.1406 125.177 41.1912V41.0792C125.177 40.1086 124.927 39.3352 124.425 38.7592C123.935 38.1832 123.273 37.8952 122.441 37.8952C121.599 37.8952 120.932 38.1832 120.441 38.7592C119.951 39.3352 119.705 40.1032 119.705 41.0632V41.1912C119.705 42.1512 119.951 42.9192 120.441 43.4952C120.932 44.0606 121.599 44.3432 122.441 44.3432ZM122.425 45.4472C121.241 45.4472 120.26 45.0472 119.481 44.2472C118.713 43.4366 118.329 42.4179 118.329 41.1912V41.0632C118.329 39.8152 118.713 38.7912 119.481 37.9912C120.26 37.1912 121.247 36.7912 122.441 36.7912C123.636 36.7912 124.617 37.1912 125.385 37.9912C126.164 38.7806 126.553 39.7992 126.553 41.0472V41.1752C126.553 42.4339 126.164 43.4632 125.385 44.2632C124.607 45.0526 123.62 45.4472 122.425 45.4472ZM128.71 45.3032V36.9352H130.038V38.2632C130.24 37.8366 130.576 37.4846 131.046 37.2072C131.515 36.9299 132.075 36.7912 132.726 36.7912C133.643 36.7912 134.363 37.0632 134.886 37.6072C135.408 38.1512 135.67 39.0046 135.67 40.1672V45.3032H134.342V40.0712C134.342 39.3352 134.182 38.7966 133.862 38.4552C133.542 38.1139 133.046 37.9432 132.374 37.9432C131.723 37.9432 131.168 38.1459 130.71 38.5512C130.262 38.9566 130.038 39.5166 130.038 40.2312V45.3032H128.71ZM140.916 45.4152C140.18 45.4152 139.62 45.2179 139.236 44.8232C138.852 44.4286 138.66 43.8899 138.66 43.2072V38.0552H137.46V36.9352H138.66V35.0312H139.988V36.9352H141.94V38.0552H139.988V43.0792C139.988 43.8899 140.335 44.2952 141.028 44.2952C141.412 44.2952 141.753 44.2366 142.052 44.1192V45.2392C141.721 45.3566 141.343 45.4152 140.916 45.4152ZM144.16 45.3032V32.9352H145.488V38.2632C145.69 37.8366 146.026 37.4846 146.496 37.2072C146.965 36.9299 147.525 36.7912 148.176 36.7912C149.093 36.7912 149.813 37.0632 150.336 37.6072C150.858 38.1512 151.12 39.0046 151.12 40.1672V45.3032H149.792V40.0712C149.792 39.3352 149.632 38.7966 149.312 38.4552C148.992 38.1139 148.496 37.9432 147.824 37.9432C147.173 37.9432 146.618 38.1459 146.16 38.5512C145.712 38.9566 145.488 39.5166 145.488 40.2312V45.3032H144.16Z" fill="#374754"/>
</g>
</g>
</g>
<defs>
<clipPath id="clip0_67_6761">
<rect width="153" height="61" fill="white" transform="translate(0 0.303223)"/>
</clipPath>
<clipPath id="clip1_67_6761">
<rect width="75" height="104" fill="white" transform="translate(0 -21.1968)"/>
</clipPath>
<clipPath id="clip2_67_6761">
<rect width="78" height="51" fill="white" transform="translate(75 0.303223)"/>
</clipPath>
<clipPath id="clip3_67_6761">
<rect width="13" height="28" fill="white" transform="translate(75 0.303223)"/>
</clipPath>
<clipPath id="clip4_67_6761">
<rect width="78" height="23" fill="white" transform="translate(75 28.3032)"/>
</clipPath>
</defs>
</svg>
